<?xml version="1.0" encoding="UTF-8"?>
<svg width="128px" height="128px" viewBox="0 0 128 128" version="1.1" xmlns="http://www.w3.org/2000/svg" xmlns:xlink="http://www.w3.org/1999/xlink">
    <!-- Generator: Sketch 51.3 (57544) - http://www.bohemiancoding.com/sketch -->
    <title>social-square-thrust-rounded</title>
    <desc>Created with Sketch.</desc>
    <defs>
        <path d="M0,10 L0,118 C6.76353751e-16,123.522847 4.4771525,128 10,128 L34.7822872,128 C51.5854787,128 59.0774202,120.038435 59.0774202,102.122764 C59.6219681,101.879063 60.1644415,101.778471 60.7017287,101.699657 L64.9969149,101.699657 C65.5611702,101.784693 66.1306117,101.894618 66.7010904,102.027358 C66.7010904,120.038435 74.1940691,128 90.9951862,128 L118,128 C123.522847,128 128,123.522847 128,118 L128,10 C128,4.4771525 123.522847,-1.01453063e-15 118,0 L10,0 C4.4771525,1.01453063e-15 -6.76353751e-16,4.4771525 0,10 Z" id="path-1"></path>
    </defs>
    <g id="social-square-thrust-rounded" stroke="none" stroke-width="1" fill="none" fill-rule="evenodd">
        <mask id="mask-2" fill="white">
            <use xlink:href="#path-1"></use>
        </mask>
        <use id="Mask" fill="#1290B1" xlink:href="#path-1"></use>
        <g id="Group" mask="url(#mask-2)">
            <g transform="translate(1.000000, 10.000000)">
                <g id="rocket-fill" stroke-width="1" fill="none" transform="translate(19.973404, 20.695652)">
                    <path d="M29.1234138,19.4082584 C25.6749927,34.8370051 28.0167396,49.4082619 33.3666837,67.533928 L51.1514261,67.533928 C56.5013701,49.4097796 59.462182,34.8370051 56.0550319,19.4082584 L29.1234138,19.4082584 Z" id="Fill-43" fill="#FEFEFE"></path>
                    <path d="M10.0776131,0.49946887 C5.32380571,7.86932858 0.466056551,18.8042213 1.02092217,29.0500868 C10.9641753,29.2261379 21.6808774,24.1115523 29.1218852,19.4082584 L10.0776131,0.49946887 Z" id="Fill-45" fill="#FEFEFE"></path>
                </g>
                <path d="M58.1947422,92.0724147 C58.1556463,92.0884893 58.1165386,92.1052575 58.0774202,92.1227641 C58.0774202,110.038435 50.5854787,118 33.7822872,118 L9,118 C5.49708476,118 2.41483626,116.198912 0.628799292,113.472279 L33.8996435,113.46862 C47.8448533,113.46862 53.4131789,107.681378 53.6022458,92.9358873 L53.6022458,91.07148 L58.1947422,91.0608696 L58.1947422,92.0724147 Z" id="Combined-Shape" fill="#053247"></path>
                <path d="M125.364491,113.482509 C123.57745,116.203416 120.498533,118 117,118 L89.9951862,118 C87.9732692,118 86.0861595,117.884695 84.3306933,117.650445 C71.5808924,115.904789 65.8184082,107.845448 65.8184082,92.1689035 L65.8184082,91.07148 L70.4109045,91.07148 L70.4109045,92.9222453 C70.596922,107.678347 76.1621981,113.46862 90.1135069,113.46862 L125.364491,113.482509 Z" id="Combined-Shape" fill="#053247"></path>
                <g id="mark" stroke-width="1" fill="none" transform="translate(17.898936, 0.000000)">
                    <path d="M44.2015934,64.806 C47.7515181,64.806 50.6284713,61.9436087 50.6284713,58.4116522 C50.6284713,54.8812174 47.7515181,52.0173043 44.2015934,52.0173043 C40.6531981,52.0173043 37.7747154,54.8812174 37.7747154,58.4116522 C37.7747154,61.9436087 40.6531981,64.806 44.2015934,64.806 M32.533338,43.4913043 L55.7401488,43.4913043 C58.3035584,57.043913 55.9588645,70.0121739 50.9849932,87.1804348 L46.3185476,87.1804348 L46.3185476,71.9143478 L41.7301055,71.9143478 L41.7301055,87.1804348 L36.6369347,87.1804348 C32.1112013,71.4669565 29.7512126,57.8382609 32.533338,43.4913043 Z M4.80385278,48.5419565 C5.00421475,39.578913 9.15981383,30.9034783 12.0520618,25.9197826 L26.9828525,40.7734783 C21.4751925,43.9919565 13.0630486,48.0245652 4.80385278,48.5419565 Z M59.686209,70.9906522 C61.6882992,60.3384783 62.0446682,50.6602174 59.8544519,40.7202174 L59.4598458,38.926087 L31.6156496,38.926087 L11.2154359,18.6306522 L9.67830779,21.0197826 C6.61475793,25.7767391 -0.433089163,38.22 0.255177155,50.9980435 L0.371417688,53.1193478 L2.50504327,53.158913 C2.68705148,53.1604348 2.8675302,53.1619565 3.04953841,53.1619565 C12.0153543,53.1619565 21.1448246,49.2297826 27.5135823,45.7221739 C26.2379954,54.3413043 26.6570731,62.7169565 28.174318,71.4136957 L18.339757,93.6493478 L18.339757,102.887826 L27.3101614,102.887826 C27.3101614,100.897391 28.3104418,99.0256522 29.9102786,97.4004348 C32.7642896,94.4984783 37.5225041,92.3908696 41.9197611,91.7456522 L46.2145429,91.7456522 C53.0559101,92.7804348 60.7369622,97.37 60.7369622,102.887826 L69.7088961,102.887826 L69.7088961,93.6493478 L59.686209,70.9906522 Z" id="rocket" fill="#053247"></path>
                    <path d="M72.2377395,50.789413 C71.517354,50.789413 70.8092045,50.4531087 70.3625961,49.8231087 C69.6315043,48.794413 69.8777507,47.3700652 70.9132092,46.6426739 L79.3834733,40.686587 L69.6330338,40.5998478 L78.5590832,25.4250652 L64.660692,33.324413 L67.6248256,13.9876739 L57.2396516,29.5657174 L51.8681154,12.2985435 L50.0266206,31.9700652 L40.4627778,24.2852826 L42.2614471,29.4896304 C42.6744069,30.6811522 42.0381429,31.9807174 40.8405595,32.3900652 C39.6399171,32.8039783 38.3367996,32.169413 37.9238398,30.9748478 L33.5250533,18.2652826 L37.1361572,15.7468043 L46.2503328,23.0678913 L48.3686635,0.46397826 L52.8423946,-0.000152174793 L58.7630144,19.0231087 L69.5489124,2.84397826 L73.7289831,4.45093478 L70.6287257,24.6763696 L83.7379049,17.2228913 L86.856516,20.3591957 L77.5939809,36.1061522 L86.5368546,36.1852826 L87.8384427,40.3320217 L73.5592108,50.3709348 C73.1584868,50.6539783 72.6965837,50.789413 72.2377395,50.789413" id="exclamation" fill="#E4B931"></path>
                </g>
            </g>
        </g>
    </g>
</svg>