<?xml version="1.0" encoding="UTF-8"?>
<svg width="111px" height="130px" viewBox="0 0 111 130" version="1.1" xmlns="http://www.w3.org/2000/svg" xmlns:xlink="http://www.w3.org/1999/xlink">
    <!-- Generator: Sketch 51.3 (57544) - http://www.bohemiancoding.com/sketch -->
    <title>rsg-lockup-vert-on-dark</title>
    <desc>Created with Sketch.</desc>
    <defs></defs>
    <g id="rsg-lockup-vert-on-dark" stroke="none" stroke-width="1" fill="none" fill-rule="evenodd">
        <g id="logotype" transform="translate(0.000000, 81.000000)" fill="#E4B931">
            <path d="M29.6413,40.0018 C28.6653,40.0018 28.4863,40.1688 28.4863,40.9788 L28.4863,44.7288 C28.4863,45.5388 28.6653,45.6888 29.6413,45.6888 L33.2113,45.6888 C33.5563,45.6888 33.7063,45.5388 33.7063,45.2238 L33.7063,44.3388 L31.5453,44.3388 C31.3203,44.3388 31.2013,44.2188 31.2013,44.0088 L31.2013,42.3578 C31.2013,42.1488 31.3203,42.0288 31.5453,42.0288 L36.3013,42.0288 C36.5263,42.0288 36.6463,42.1488 36.6463,42.3578 L36.6463,45.7488 C36.6463,47.5198 36.0313,48.1048 34.1863,48.1048 L27.9753,48.1048 C26.2353,48.1048 25.4563,47.3838 25.4563,45.7038 L25.4563,40.0038 C25.4563,38.3228 26.2353,37.6048 27.9753,37.6048 L34.1863,37.6048 C36.0313,37.6048 36.6463,38.1728 36.6463,38.9968 L36.6463,39.6728 C36.6463,39.8818 36.5263,40.0018 36.3013,40.0018 L29.6413,40.0018 Z" id="Fill-1"></path>
            <path d="M42.7815,44.7284 C42.7815,45.5394 42.9615,45.6884 43.9365,45.6884 L46.5915,45.6884 C47.5815,45.6884 47.7465,45.5394 47.7465,44.7284 L47.7465,37.9334 C47.7465,37.7234 47.8665,37.6044 48.0915,37.6044 L50.4315,37.6044 C50.6425,37.6044 50.7765,37.7234 50.7765,37.9334 L50.7765,45.7044 C50.7765,47.3834 50.0275,48.1044 48.2715,48.1044 L42.2715,48.1044 C40.5165,48.1044 39.7515,47.3834 39.7515,45.7044 L39.7515,37.9334 C39.7515,37.7234 39.8715,37.6044 40.0965,37.6044 L42.4365,37.6044 C42.6615,37.6044 42.7815,37.7234 42.7815,37.9334 L42.7815,44.7284 Z" id="Fill-4"></path>
            <path d="M57.0173,47.7733 C57.0173,47.9843 56.8823,48.1043 56.6583,48.1043 L54.3323,48.1043 C54.1073,48.1043 53.9873,47.9843 53.9873,47.7733 L53.9873,37.9333 C53.9873,37.7233 54.1073,37.6043 54.3323,37.6043 L56.6583,37.6043 C56.8823,37.6043 57.0173,37.7233 57.0173,37.9333 L57.0173,47.7733 Z" id="Fill-7"></path>
            <path d="M63.2746,45.6884 L70.7676,45.6884 C70.9916,45.6884 71.1116,45.8084 71.1116,46.0194 L71.1116,47.7734 C71.1116,47.9844 70.9916,48.1044 70.7676,48.1044 L60.5896,48.1044 C60.3646,48.1044 60.2446,47.9844 60.2446,47.7734 L60.2446,37.9334 C60.2446,37.7234 60.3646,37.6044 60.5896,37.6044 L62.9146,37.6044 C63.1386,37.6044 63.2746,37.7234 63.2746,37.9334 L63.2746,45.6884 Z" id="Fill-10"></path>
            <path d="M76.9944,45.6884 L80.6544,45.6884 C81.6594,45.6884 82.0344,45.3884 82.0344,44.5344 L82.0344,41.1734 C82.0344,40.3344 81.6594,40.0184 80.6544,40.0184 L76.9944,40.0184 L76.9944,45.6884 Z M81.7494,37.6044 C83.8344,37.6044 85.0644,38.7584 85.0644,40.7684 L85.0644,44.9394 C85.0644,46.9494 83.8344,48.1044 81.7494,48.1044 L74.3084,48.1044 C74.0834,48.1044 73.9644,47.9844 73.9644,47.7734 L73.9644,37.9334 C73.9644,37.7234 74.0834,37.6044 74.3084,37.6044 L81.7494,37.6044 Z" id="Fill-13"></path>
            <path d="M7.5002,27.3036 C7.9952,27.3036 8.1452,27.1536 8.1452,26.7786 L8.1452,26.1036 C8.1452,25.7286 7.9952,25.5776 7.5002,25.5776 L2.6392,25.5776 C0.8692,25.5776 0.1342,24.8586 0.1342,23.1786 L0.1342,21.6176 C0.1342,19.9386 0.8692,19.2186 2.6392,19.2186 L8.5202,19.2186 C10.3502,19.2186 10.9652,19.8036 10.9652,20.7086 L10.9652,21.3036 C10.9652,21.5126 10.8452,21.6326 10.6202,21.6326 L3.8102,21.6326 C3.3142,21.6326 3.1652,21.7826 3.1652,22.1576 L3.1652,22.7426 C3.1652,23.1176 3.3142,23.2686 3.8102,23.2686 L8.6692,23.2686 C10.4402,23.2686 11.1752,23.9886 11.1752,25.6686 L11.1752,27.3196 C11.1752,28.9976 10.4402,29.7186 8.6692,29.7186 L2.4442,29.7186 C0.5992,29.7186 0.0002,29.1336 0.0002,28.1716 L0.0002,27.6336 C0.0002,27.4236 0.1202,27.3036 0.3452,27.3036 L7.5002,27.3036 Z" id="Fill-28"></path>
            <path d="M17.1775,26.3436 C17.1775,27.1536 17.3575,27.3036 18.3325,27.3036 L20.9875,27.3036 C21.9775,27.3036 22.1425,27.1536 22.1425,26.3436 L22.1425,19.5476 C22.1425,19.3386 22.2615,19.2186 22.4875,19.2186 L24.8275,19.2186 C25.0375,19.2186 25.1725,19.3386 25.1725,19.5476 L25.1725,27.3196 C25.1725,28.9976 24.4225,29.7186 22.6675,29.7186 L16.6675,29.7186 C14.9125,29.7186 14.1475,28.9976 14.1475,27.3196 L14.1475,19.5476 C14.1475,19.3386 14.2665,19.2186 14.4915,19.2186 L16.8325,19.2186 C17.0575,19.2186 17.1775,19.3386 17.1775,19.5476 L17.1775,26.3436 Z" id="Fill-30"></path>
            <path d="M31.4128,23.9882 L35.3728,23.9882 C36.2438,23.9882 36.3778,23.8532 36.3778,23.1342 L36.3778,22.4882 C36.3778,21.7682 36.2438,21.6332 35.3728,21.6332 L31.4128,21.6332 L31.4128,23.9882 Z M39.4078,21.6182 L39.4078,23.7032 C39.4078,25.3842 38.6728,26.2542 36.9028,26.2542 L36.8588,26.2542 L39.7388,29.3882 C39.8588,29.5232 39.7838,29.7182 39.6188,29.7182 L36.6628,29.7182 C36.3778,29.7182 36.2578,29.6582 36.0938,29.4632 L33.5138,26.4042 L31.4128,26.4042 L31.4128,29.3882 C31.4128,29.5982 31.2778,29.7182 31.0538,29.7182 L28.7278,29.7182 C28.5028,29.7182 28.3828,29.5982 28.3828,29.3882 L28.3828,19.5482 C28.3828,19.3392 28.5028,19.2182 28.7278,19.2182 L36.9028,19.2182 C38.6728,19.2182 39.4078,19.9382 39.4078,21.6182 Z" id="Fill-32"></path>
            <path d="M46.5935,21.6327 C45.6175,21.6327 45.4385,21.7827 45.4385,22.5927 L45.4385,26.3437 C45.4385,27.1537 45.6175,27.3037 46.5935,27.3037 L50.1635,27.3037 C50.5085,27.3037 50.6585,27.1537 50.6585,26.8387 L50.6585,25.9527 L48.4975,25.9527 C48.2725,25.9527 48.1535,25.8337 48.1535,25.6227 L48.1535,23.9727 C48.1535,23.7637 48.2725,23.6437 48.4975,23.6437 L53.2535,23.6437 C53.4785,23.6437 53.5985,23.7637 53.5985,23.9727 L53.5985,27.3637 C53.5985,29.1337 52.9835,29.7187 51.1385,29.7187 L44.9275,29.7187 C43.1875,29.7187 42.4075,28.9977 42.4075,27.3197 L42.4075,21.6177 C42.4075,19.9387 43.1875,19.2187 44.9275,19.2187 L51.1385,19.2187 C52.9835,19.2187 53.5985,19.8037 53.5985,20.6477 L53.5985,21.3037 C53.5985,21.5127 53.4785,21.6327 53.2535,21.6327 L46.5935,21.6327 Z" id="Fill-34"></path>
            <path d="M66.9529,19.2186 C67.1769,19.2186 67.2979,19.3386 67.2979,19.5476 L67.2979,21.3036 C67.2979,21.5126 67.1769,21.6326 66.9529,21.6326 L59.7819,21.6326 L59.7819,23.2686 L65.7819,23.2686 C65.9929,23.2686 66.1269,23.3886 66.1269,23.5986 L66.1269,25.2486 C66.1269,25.4576 65.9929,25.5776 65.7819,25.5776 L59.7819,25.5776 L59.7819,27.3036 L66.9529,27.3036 C67.1769,27.3036 67.2979,27.4236 67.2979,27.6336 L67.2979,29.3886 C67.2979,29.5986 67.1769,29.7186 66.9529,29.7186 L57.0969,29.7186 C56.8719,29.7186 56.7519,29.5986 56.7519,29.3886 L56.7519,19.5476 C56.7519,19.3386 56.8719,19.2186 57.0969,19.2186 L66.9529,19.2186 Z" id="Fill-36"></path>
            <path d="M78.6848,22.5926 C78.6848,21.7826 78.5198,21.6326 77.5298,21.6326 L74.4698,21.6326 C73.4948,21.6326 73.3148,21.7826 73.3148,22.5926 L73.3148,26.3436 C73.3148,27.1536 73.4948,27.3036 74.4698,27.3036 L77.5298,27.3036 C78.5198,27.3036 78.6848,27.1536 78.6848,26.3436 L78.6848,22.5926 Z M81.7148,27.3196 C81.7148,28.9976 80.9648,29.7186 79.2098,29.7186 L72.8048,29.7186 C71.0648,29.7186 70.2848,28.9976 70.2848,27.3196 L70.2848,21.6176 C70.2848,19.9386 71.0648,19.2186 72.8048,19.2186 L79.2098,19.2186 C80.9648,19.2186 81.7148,19.9386 81.7148,21.6176 L81.7148,27.3196 Z" id="Fill-38"></path>
            <path d="M92.0613,29.7186 C91.8203,29.7186 91.6713,29.6436 91.5803,29.4476 L87.6503,21.6176 L87.6503,29.3886 C87.6503,29.5986 87.5153,29.7186 87.3063,29.7186 L85.2053,29.7186 C84.9803,29.7186 84.8603,29.5986 84.8603,29.3886 L84.8603,19.5476 C84.8603,19.3386 84.9803,19.2186 85.2053,19.2186 L89.1503,19.2186 C89.3903,19.2186 89.5403,19.2936 89.6303,19.4886 L93.5613,27.3336 L93.5613,19.5476 C93.5613,19.3386 93.6953,19.2186 93.9203,19.2186 L96.0053,19.2186 C96.2303,19.2186 96.3503,19.3386 96.3503,19.5476 L96.3503,29.3886 C96.3503,29.5986 96.2303,29.7186 96.0053,29.7186 L92.0613,29.7186 Z" id="Fill-40"></path>
            <path d="M106.845,27.3036 C107.34,27.3036 107.491,27.1536 107.491,26.7786 L107.491,26.1036 C107.491,25.7286 107.34,25.5776 106.845,25.5776 L101.985,25.5776 C100.215,25.5776 99.48,24.8586 99.48,23.1786 L99.48,21.6176 C99.48,19.9386 100.215,19.2186 101.985,19.2186 L107.866,19.2186 C109.695,19.2186 110.31,19.8036 110.31,20.7646 L110.31,21.3036 C110.31,21.5126 110.19,21.6326 109.965,21.6326 L103.155,21.6326 C102.66,21.6326 102.51,21.7826 102.51,22.1576 L102.51,22.7426 C102.51,23.1176 102.66,23.2686 103.155,23.2686 L108.015,23.2686 C109.785,23.2686 110.52,23.9886 110.52,25.6686 L110.52,27.3196 C110.52,28.9976 109.785,29.7186 108.015,29.7186 L101.789,29.7186 C99.945,29.7186 99.345,29.1336 99.345,28.1846 L99.345,27.6336 C99.345,27.4236 99.465,27.3036 99.69,27.3036 L106.845,27.3036 Z" id="Fill-42"></path>
            <path d="M17.7893,5.6034 L21.7493,5.6034 C22.6193,5.6034 22.7543,5.4674 22.7543,4.7484 L22.7543,4.1034 C22.7543,3.3824 22.6193,3.2474 21.7493,3.2474 L17.7893,3.2474 L17.7893,5.6034 Z M25.7843,3.2324 L25.7843,5.3174 C25.7843,6.9984 25.0493,7.8684 23.2793,7.8684 L23.2343,7.8684 L26.1143,11.0024 C26.2343,11.1384 26.1593,11.3324 25.9953,11.3324 L23.0393,11.3324 C22.7543,11.3324 22.6343,11.2724 22.4693,11.0784 L19.8893,8.0184 L17.7893,8.0184 L17.7893,11.0024 C17.7893,11.2124 17.6533,11.3324 17.4293,11.3324 L15.1033,11.3324 C14.8783,11.3324 14.7593,11.2124 14.7593,11.0024 L14.7593,1.1634 C14.7593,0.9534 14.8783,0.8324 15.1033,0.8324 L23.2793,0.8324 C25.0493,0.8324 25.7843,1.5524 25.7843,3.2324 Z" id="Fill-16"></path>
            <path d="M37.1848,4.2079 C37.1848,3.3969 37.0198,3.2469 36.0298,3.2469 L32.9708,3.2469 C31.9948,3.2469 31.8148,3.3969 31.8148,4.2079 L31.8148,7.9579 C31.8148,8.7679 31.9948,8.9179 32.9708,8.9179 L36.0298,8.9179 C37.0198,8.9179 37.1848,8.7679 37.1848,7.9579 L37.1848,4.2079 Z M40.2148,8.9339 C40.2148,10.6129 39.4658,11.3329 37.7098,11.3329 L31.3048,11.3329 C29.5648,11.3329 28.7848,10.6129 28.7848,8.9339 L28.7848,3.2319 C28.7848,1.5529 29.5648,0.8329 31.3048,0.8329 L37.7098,0.8329 C39.4658,0.8329 40.2148,1.5529 40.2148,3.2319 L40.2148,8.9339 Z" id="Fill-18"></path>
            <path d="M53.8054,8.9178 C54.0304,8.9178 54.1504,9.0378 54.1504,9.2478 L54.1504,9.7418 C54.1504,10.7478 53.5354,11.3328 51.6904,11.3328 L45.7944,11.3328 C44.0554,11.3328 43.2754,10.6128 43.2754,8.9338 L43.2754,3.2318 C43.2754,1.5528 44.0554,0.8328 45.7944,0.8328 L51.6904,0.8328 C53.5354,0.8328 54.1504,1.4178 54.1504,2.5338 L54.1504,2.9158 C54.1504,3.1258 54.0304,3.2448 53.8054,3.2448 L47.4604,3.2468 C46.4854,3.2468 46.3054,3.3968 46.3054,4.2078 L46.3054,7.9578 C46.3054,8.7678 46.4854,8.9178 47.4604,8.9178 L50.7154,8.9178 L53.8054,8.9178 Z" id="Fill-20"></path>
            <path d="M64.3303,6.038 L68.7403,11.003 C68.8603,11.139 68.7853,11.333 68.6053,11.333 L65.6053,11.333 C65.3653,11.333 65.2453,11.272 65.0803,11.078 L61.7653,7.193 L60.2203,7.193 L60.2203,11.003 C60.2203,11.213 60.0843,11.333 59.8603,11.333 L57.5353,11.333 C57.3093,11.333 57.1893,11.213 57.1893,11.003 L57.1893,1.163 C57.1893,0.953 57.3093,0.833 57.5353,0.833 L59.8603,0.833 C60.0843,0.833 60.2203,0.953 60.2203,1.163 L60.2203,4.822 L61.9453,4.822 L65.1553,1.088 C65.3203,0.892 65.4403,0.833 65.6803,0.833 L68.5153,0.833 C68.6803,0.833 68.7553,1.013 68.6353,1.163 L64.3303,6.038 Z" id="Fill-22"></path>
            <path d="M81.8303,0.8329 C82.0553,0.8329 82.1753,0.9529 82.1753,1.1629 L82.1753,2.9179 C82.1753,3.1279 82.0553,3.2469 81.8303,3.2469 L74.6603,3.2469 L74.6603,4.8829 L80.6603,4.8829 C80.8703,4.8829 81.0053,5.0029 81.0053,5.2129 L81.0053,6.8629 C81.0053,7.0729 80.8703,7.1929 80.6603,7.1929 L74.6603,7.1929 L74.6603,8.9179 L81.8303,8.9179 C82.0553,8.9179 82.1753,9.0379 82.1753,9.2479 L82.1753,11.0029 C82.1753,11.2129 82.0553,11.3329 81.8303,11.3329 L71.9753,11.3329 C71.7493,11.3329 71.6293,11.2129 71.6293,11.0029 L71.6293,1.1629 C71.6293,0.9529 71.7493,0.8329 71.9753,0.8329 L81.8303,0.8329 Z" id="Fill-24"></path>
            <path d="M88.8015,3.2469 L85.2165,3.2469 C84.9915,3.2469 84.8705,3.1279 84.8705,2.9179 L84.8705,1.1629 C84.8705,0.9529 84.9915,0.8329 85.2165,0.8329 L95.4165,0.8329 C95.6415,0.8329 95.7615,0.9529 95.7615,1.1629 L95.7615,2.9179 C95.7615,3.1279 95.6415,3.2469 95.4165,3.2469 L91.8315,3.2469 L91.8315,11.0029 C91.8315,11.2129 91.6965,11.3329 91.4865,11.3329 L89.1465,11.3329 C88.9215,11.3329 88.8015,11.2129 88.8015,11.0029 L88.8015,3.2469 Z" id="Fill-26"></path>
        </g>
        <g id="mark" transform="translate(26.000000, 0.000000)">
            <path d="M29.5779,42.5868 C31.8989,42.5868 33.7799,40.7058 33.7799,38.3848 C33.7799,36.0648 31.8989,34.1828 29.5779,34.1828 C27.2579,34.1828 25.3759,36.0648 25.3759,38.3848 C25.3759,40.7058 27.2579,42.5868 29.5779,42.5868 M21.949,28.58 L37.122,28.58 C38.798,37.486 37.265,46.008 34.013,57.29 L30.962,57.29 L30.962,47.258 L27.962,47.258 L27.962,57.29 L24.632,57.29 C21.673,46.964 20.13,38.008 21.949,28.58 Z M3.819,31.899 C3.95,26.009 6.667,20.308 8.558,17.033 L18.32,26.794 C14.719,28.909 9.219,31.559 3.819,31.899 Z M39.702,46.651 C41.011,39.651 41.244,33.291 39.812,26.759 L39.554,25.58 L21.349,25.58 L8.011,12.243 L7.006,13.813 C5.003,16.939 0.395,25.116 0.845,33.513 L0.921,34.907 L2.316,34.933 C2.435,34.934 2.553,34.935 2.672,34.935 C8.534,34.935 14.503,32.351 18.667,30.046 C17.833,35.71 18.107,41.214 19.099,46.929 L12.669,61.541 L12.669,67.612 L18.534,67.612 C18.534,66.304 19.188,65.074 20.234,64.006 C22.1,62.099 25.211,60.714 28.086,60.29 L30.894,60.29 C35.367,60.97 40.389,63.986 40.389,67.612 L46.255,67.612 L46.255,61.541 L39.702,46.651 Z" id="rocket" fill="#FFFFFF"></path>
            <polygon id="wing" fill="#FFFFFF" points="27.962 67.612 30.962 67.612 30.962 57.29 27.962 57.29"></polygon>
            <path d="M47.9084,33.3759 C47.4374,33.3759 46.9744,33.1549 46.6824,32.7409 C46.2044,32.0649 46.3654,31.1289 47.0424,30.6509 L52.5804,26.7369 L46.2054,26.6799 L52.0414,16.7079 L42.9544,21.8989 L44.8924,9.1919 L38.1024,19.4289 L34.5904,8.0819 L33.3864,21.0089 L27.1334,15.9589 L28.3094,19.3789 C28.5794,20.1619 28.1634,21.0159 27.3804,21.2849 C26.5954,21.5569 25.7434,21.1399 25.4734,20.3549 L22.5974,12.0029 L24.9584,10.3479 L30.9174,15.1589 L32.3024,0.3049 L35.2274,-0.0001 L39.0984,12.5009 L46.1504,1.8689 L48.8834,2.9249 L46.8564,16.2159 L55.4274,11.3179 L57.4664,13.3789 L51.4104,23.7269 L57.2574,23.7789 L58.1084,26.5039 L48.7724,33.1009 C48.5104,33.2869 48.2084,33.3759 47.9084,33.3759" id="exclamation" fill="#E4B931"></path>
        </g>
    </g>
</svg>